<svg width="864" height="207" viewBox="0 0 864 207" fill="none" xmlns="http://www.w3.org/2000/svg">
<ellipse cx="46.5454" cy="103" rx="25.4545" ry="80" fill="black"/>
<ellipse cx="6.18182" cy="108.091" rx="6.18182" ry="50.9091" fill="black"/>
<path d="M80.7271 191C129.328 191 168.727 151.601 168.727 103C168.727 54.3989 129.328 15 80.7271 15V191Z" fill="black"/>
<path d="M273.608 152.966C266.524 152.966 260.176 151.816 254.564 149.516C248.952 147.216 244.444 143.812 241.04 139.304C237.728 134.796 235.98 129.368 235.796 123.02H260.912C261.28 126.608 262.522 129.368 264.638 131.3C266.754 133.14 269.514 134.06 272.918 134.06C276.414 134.06 279.174 133.278 281.198 131.714C283.222 130.058 284.234 127.804 284.234 124.952C284.234 122.56 283.406 120.582 281.75 119.018C280.186 117.454 278.208 116.166 275.816 115.154C273.516 114.142 270.204 112.992 265.88 111.704C259.624 109.772 254.518 107.84 250.562 105.908C246.606 103.976 243.202 101.124 240.35 97.352C237.498 93.58 236.072 88.658 236.072 82.586C236.072 73.57 239.338 66.532 245.87 61.472C252.402 56.32 260.912 53.744 271.4 53.744C282.072 53.744 290.674 56.32 297.206 61.472C303.738 66.532 307.234 73.616 307.694 82.724H282.164C281.98 79.596 280.83 77.158 278.714 75.41C276.598 73.57 273.884 72.65 270.572 72.65C267.72 72.65 265.42 73.432 263.672 74.996C261.924 76.468 261.05 78.63 261.05 81.482C261.05 84.61 262.522 87.048 265.466 88.796C268.41 90.544 273.01 92.43 279.266 94.454C285.522 96.57 290.582 98.594 294.446 100.526C298.402 102.458 301.806 105.264 304.658 108.944C307.51 112.624 308.936 117.362 308.936 123.158C308.936 128.678 307.51 133.692 304.658 138.2C301.898 142.708 297.85 146.296 292.514 148.964C287.178 151.632 280.876 152.966 273.608 152.966ZM347.056 85.898C349.356 82.31 352.53 79.412 356.578 77.204C360.626 74.996 365.364 73.892 370.792 73.892C377.14 73.892 382.89 75.502 388.042 78.722C393.194 81.942 397.242 86.542 400.186 92.522C403.222 98.502 404.74 105.448 404.74 113.36C404.74 121.272 403.222 128.264 400.186 134.336C397.242 140.316 393.194 144.962 388.042 148.274C382.89 151.494 377.14 153.104 370.792 153.104C365.456 153.104 360.718 152 356.578 149.792C352.53 147.584 349.356 144.732 347.056 141.236V188.708H323.458V74.996H347.056V85.898ZM380.728 113.36C380.728 107.472 379.072 102.872 375.76 99.56C372.54 96.156 368.538 94.454 363.754 94.454C359.062 94.454 355.06 96.156 351.748 99.56C348.528 102.964 346.918 107.61 346.918 113.498C346.918 119.386 348.528 124.032 351.748 127.436C355.06 130.84 359.062 132.542 363.754 132.542C368.446 132.542 372.448 130.84 375.76 127.436C379.072 123.94 380.728 119.248 380.728 113.36ZM489.708 112.256C489.708 114.464 489.57 116.764 489.294 119.156H435.888C436.256 123.94 437.774 127.62 440.442 130.196C443.202 132.68 446.56 133.922 450.516 133.922C456.404 133.922 460.498 131.438 462.798 126.47H487.914C486.626 131.53 484.28 136.084 480.876 140.132C477.564 144.18 473.378 147.354 468.318 149.654C463.258 151.954 457.6 153.104 451.344 153.104C443.8 153.104 437.084 151.494 431.196 148.274C425.308 145.054 420.708 140.454 417.396 134.474C414.084 128.494 412.428 121.502 412.428 113.498C412.428 105.494 414.038 98.502 417.258 92.522C420.57 86.542 425.17 81.942 431.058 78.722C436.946 75.502 443.708 73.892 451.344 73.892C458.796 73.892 465.42 75.456 471.216 78.584C477.012 81.712 481.52 86.174 484.74 91.97C488.052 97.766 489.708 104.528 489.708 112.256ZM465.558 106.046C465.558 101.998 464.178 98.778 461.418 96.386C458.658 93.994 455.208 92.798 451.068 92.798C447.112 92.798 443.754 93.948 440.994 96.248C438.326 98.548 436.67 101.814 436.026 106.046H465.558ZM497.466 113.36C497.466 105.448 498.938 98.502 501.882 92.522C504.918 86.542 509.012 81.942 514.164 78.722C519.316 75.502 525.066 73.892 531.414 73.892C536.842 73.892 541.58 74.996 545.628 77.204C549.768 79.412 552.942 82.31 555.15 85.898V74.996H578.748V152H555.15V141.098C552.85 144.686 549.63 147.584 545.49 149.792C541.442 152 536.704 153.104 531.276 153.104C525.02 153.104 519.316 151.494 514.164 148.274C509.012 144.962 504.918 140.316 501.882 134.336C498.938 128.264 497.466 121.272 497.466 113.36ZM555.15 113.498C555.15 107.61 553.494 102.964 550.182 99.56C546.962 96.156 543.006 94.454 538.314 94.454C533.622 94.454 529.62 96.156 526.308 99.56C523.088 102.872 521.478 107.472 521.478 113.36C521.478 119.248 523.088 123.94 526.308 127.436C529.62 130.84 533.622 132.542 538.314 132.542C543.006 132.542 546.962 130.84 550.182 127.436C553.494 124.032 555.15 119.386 555.15 113.498ZM642.878 152L619.418 119.708V152H595.82V49.88H619.418V106.322L642.74 74.996H671.858L639.842 113.636L672.134 152H642.878ZM704.31 55.124V113.084C704.31 118.88 705.736 123.342 708.588 126.47C711.44 129.598 715.626 131.162 721.146 131.162C726.666 131.162 730.898 129.598 733.842 126.47C736.786 123.342 738.258 118.88 738.258 113.084V55.124H761.856V112.946C761.856 121.594 760.016 128.908 756.336 134.888C752.656 140.868 747.688 145.376 741.432 148.412C735.268 151.448 728.368 152.966 720.732 152.966C713.096 152.966 706.242 151.494 700.17 148.55C694.19 145.514 689.452 141.006 685.956 135.026C682.46 128.954 680.712 121.594 680.712 112.946V55.124H704.31ZM802.025 85.898C804.325 82.31 807.499 79.412 811.547 77.204C815.595 74.996 820.333 73.892 825.761 73.892C832.109 73.892 837.859 75.502 843.011 78.722C848.163 81.942 852.211 86.542 855.155 92.522C858.191 98.502 859.709 105.448 859.709 113.36C859.709 121.272 858.191 128.264 855.155 134.336C852.211 140.316 848.163 144.962 843.011 148.274C837.859 151.494 832.109 153.104 825.761 153.104C820.425 153.104 815.687 152 811.547 149.792C807.499 147.584 804.325 144.732 802.025 141.236V188.708H778.427V74.996H802.025V85.898ZM835.697 113.36C835.697 107.472 834.041 102.872 830.729 99.56C827.509 96.156 823.507 94.454 818.723 94.454C814.031 94.454 810.029 96.156 806.717 99.56C803.497 102.964 801.887 107.61 801.887 113.498C801.887 119.386 803.497 124.032 806.717 127.436C810.029 130.84 814.031 132.542 818.723 132.542C823.415 132.542 827.417 130.84 830.729 127.436C834.041 123.94 835.697 119.248 835.697 113.36Z" fill="black"/>
</svg>
