<svg width="45" height="45" viewBox="0 0 45 45" fill="none" xmlns="http://www.w3.org/2000/svg">
<circle cx="22.5" cy="22.5" r="22.5" fill="#E9E9FD"/>
<g clip-path="url(#clip0_655_72)">
<path d="M23.5 22.95C23.9833 22.4167 24.3542 21.8083 24.6125 21.125C24.8708 20.4417 25 19.7333 25 19C25 18.2667 24.8708 17.5583 24.6125 16.875C24.3542 16.1917 23.9833 15.5833 23.5 15.05C24.5 15.1833 25.3333 15.625 26 16.375C26.6667 17.125 27 18 27 19C27 20 26.6667 20.875 26 21.625C25.3333 22.375 24.5 22.8167 23.5 22.95ZM29 31V28C29 27.4 28.8667 26.8292 28.6 26.2875C28.3333 25.7458 27.9833 25.2667 27.55 24.85C28.4 25.15 29.1875 25.5375 29.9125 26.0125C30.6375 26.4875 31 27.15 31 28V31H29ZM31 24V22H29V20H31V18H33V20H35V22H33V24H31ZM19 23C17.9 23 16.9583 22.6083 16.175 21.825C15.3917 21.0417 15 20.1 15 19C15 17.9 15.3917 16.9583 16.175 16.175C16.9583 15.3917 17.9 15 19 15C20.1 15 21.0417 15.3917 21.825 16.175C22.6083 16.9583 23 17.9 23 19C23 20.1 22.6083 21.0417 21.825 21.825C21.0417 22.6083 20.1 23 19 23ZM11 31V28.2C11 27.6333 11.1458 27.1125 11.4375 26.6375C11.7292 26.1625 12.1167 25.8 12.6 25.55C13.6333 25.0333 14.6833 24.6458 15.75 24.3875C16.8167 24.1292 17.9 24 19 24C20.1 24 21.1833 24.1292 22.25 24.3875C23.3167 24.6458 24.3667 25.0333 25.4 25.55C25.8833 25.8 26.2708 26.1625 26.5625 26.6375C26.8542 27.1125 27 27.6333 27 28.2V31H11ZM19 21C19.55 21 20.0208 20.8042 20.4125 20.4125C20.8042 20.0208 21 19.55 21 19C21 18.45 20.8042 17.9792 20.4125 17.5875C20.0208 17.1958 19.55 17 19 17C18.45 17 17.9792 17.1958 17.5875 17.5875C17.1958 17.9792 17 18.45 17 19C17 19.55 17.1958 20.0208 17.5875 20.4125C17.9792 20.8042 18.45 21 19 21ZM13 29H25V28.2C25 28.0167 24.9542 27.85 24.8625 27.7C24.7708 27.55 24.65 27.4333 24.5 27.35C23.6 26.9 22.6917 26.5625 21.775 26.3375C20.8583 26.1125 19.9333 26 19 26C18.0667 26 17.1417 26.1125 16.225 26.3375C15.3083 26.5625 14.4 26.9 13.5 27.35C13.35 27.4333 13.2292 27.55 13.1375 27.7C13.0458 27.85 13 28.0167 13 28.2V29Z" fill="#625DF5"/>
</g>
<defs>
<clipPath id="clip0_655_72">
<rect width="24" height="24" fill="white" transform="translate(11 11)"/>
</clipPath>
</defs>
</svg>
